<?xml version="1.0" standalone="no"?>
<!DOCTYPE svg PUBLIC "-//W3C//DTD SVG 20010904//EN"
 "http://www.w3.org/TR/2001/REC-SVG-20010904/DTD/svg10.dtd">
<svg version="1.0" xmlns="http://www.w3.org/2000/svg"
 width="448.000000pt" height="200.000000pt" viewBox="0 0 448.000000 200.000000"
 preserveAspectRatio="xMidYMid meet">

<g transform="translate(0.000000,200.000000) scale(0.100000,-0.100000)"
fill="#000000" stroke="none">
<path d="M1142 1868 c-5 -7 -13 -29 -17 -48 -13 -63 -20 -66 -46 -20 -27 48
-69 76 -88 57 -6 -6 -11 -29 -11 -51 0 -72 -13 -77 -64 -27 -43 42 -46 44 -64
28 -15 -14 -17 -28 -14 -78 5 -68 6 -68 -61 -16 l-39 30 -21 -21 c-20 -21 -21
-23 -4 -74 9 -28 14 -54 12 -56 -3 -3 -25 3 -50 13 -52 19 -95 14 -95 -13 0
-9 11 -34 25 -54 31 -46 32 -62 3 -55 -80 19 -96 19 -107 -1 -16 -30 -14 -38
19 -75 16 -19 30 -39 30 -44 0 -6 -23 -13 -50 -16 -28 -3 -55 -9 -60 -12 -23
-14 -8 -45 35 -75 25 -17 45 -33 45 -35 0 -2 -24 -11 -54 -19 -37 -11 -57 -23
-61 -36 -9 -27 -2 -35 50 -60 25 -12 45 -25 45 -30 0 -4 -21 -18 -47 -32 -75
-38 -65 -79 22 -92 25 -4 45 -11 45 -16 0 -5 -18 -24 -40 -41 -65 -53 -47 -89
44 -89 25 0 46 -3 46 -6 0 -4 -16 -24 -35 -45 -40 -45 -41 -49 -17 -79 15 -18
21 -20 45 -11 30 12 77 15 77 6 0 -3 -9 -23 -20 -45 -24 -47 -25 -63 -4 -81
13 -10 24 -9 66 9 29 12 54 20 56 17 3 -2 -2 -25 -11 -51 -17 -52 -14 -70 15
-85 16 -9 27 -5 56 18 64 50 64 50 62 -3 -3 -76 -1 -81 22 -88 18 -4 33 4 65
36 47 46 50 44 55 -32 3 -41 5 -45 31 -48 18 -2 37 4 49 15 19 17 22 17 101
-12 75 -27 92 -29 206 -27 124 1 157 10 133 34 -9 9 -20 8 -47 -5 -71 -34
-272 -14 -335 32 -26 19 -30 41 -16 98 l7 31 -100 31 c-338 105 -521 426 -428
749 128 440 683 588 1003 268 110 -110 158 -221 170 -393 7 -91 17 -115 42
-99 18 11 -46 289 -89 385 -29 64 -27 87 8 74 30 -12 79 -138 97 -253 11 -66
15 -75 32 -72 10 2 20 5 21 5 3 3 -75 222 -102 286 -26 63 -26 65 -9 102 14
32 15 41 3 55 -14 17 -39 15 -104 -9 -22 -8 -41 -14 -43 -12 -2 2 4 28 14 59
17 53 17 56 -1 76 -24 26 -28 26 -70 -11 -47 -42 -65 -34 -65 29 0 76 -18 83
-75 31 -25 -23 -47 -40 -50 -37 -3 2 -8 29 -12 59 -7 49 -11 54 -35 57 -22 3
-30 -4 -50 -40 -28 -52 -49 -55 -63 -8 -14 49 -23 60 -49 60 -13 0 -28 -6 -34
-12z"/>
<path d="M905 1529 c4 -11 2 -26 -4 -33 -9 -10 -1 -23 32 -53 24 -22 49 -42
57 -45 20 -6 4 -70 -23 -96 -22 -21 -24 -21 -68 -5 -25 9 -53 14 -63 10 -24
-9 -72 -115 -58 -129 16 -16 42 9 42 41 0 14 7 35 15 45 15 19 15 19 40 -4 14
-13 25 -34 25 -46 0 -21 3 -22 59 -17 33 3 71 3 86 -1 24 -6 26 -10 23 -53 -3
-41 -6 -48 -28 -53 l-25 -6 22 -12 c12 -7 36 -12 53 -12 26 0 31 4 36 30 l6
29 44 -30 c46 -31 49 -39 57 -146 6 -77 -4 -82 -164 -94 -138 -10 -173 -20
-125 -39 30 -11 585 -13 625 -1 l24 6 -27 12 c-26 12 -26 14 -26 114 l0 102
-66 69 c-69 73 -134 167 -134 192 0 8 5 18 10 21 6 3 10 24 10 45 0 30 -6 43
-27 59 -50 37 -53 41 -53 75 0 35 -16 46 -52 38 -26 -5 -28 -27 -7 -67 l20
-36 -46 6 c-55 9 -70 -12 -36 -49 11 -12 21 -29 21 -37 -1 -8 -31 18 -68 58
-56 61 -79 77 -140 102 -67 27 -72 28 -67 10z m440 -280 c11 -17 -1 -21 -15
-4 -8 9 -8 15 -2 15 6 0 14 -5 17 -11z m139 -279 c7 -24 6 -24 -8 -6 -9 11
-16 27 -16 35 0 21 16 2 24 -29z m-60 -21 c38 -45 34 -66 -20 -88 -17 -7 -49
-11 -70 -9 l-39 3 0 45 c0 43 1 45 45 62 59 22 54 23 84 -13z m66 -89 c0 -11
-4 -20 -10 -20 -5 0 -10 9 -10 20 0 11 5 20 10 20 6 0 10 -9 10 -20z"/>
<path d="M2930 1424 c0 -8 5 -12 10 -9 6 4 8 11 5 16 -9 14 -15 11 -15 -7z"/>
<path d="M2990 1430 c0 -5 5 -10 10 -10 6 0 10 5 10 10 0 6 -4 10 -10 10 -5 0
-10 -4 -10 -10z"/>
<path d="M3630 1430 c0 -5 5 -10 10 -10 6 0 10 5 10 10 0 6 -4 10 -10 10 -5 0
-10 -4 -10 -10z"/>
<path d="M2320 1295 l0 -105 44 0 c73 0 88 12 31 25 -44 9 -50 13 -53 38 -3
25 -1 27 32 27 19 0 37 4 40 9 7 11 -17 21 -50 21 -19 0 -24 5 -24 25 0 18 6
26 25 30 80 16 79 16 64 26 -7 5 -35 9 -61 9 l-48 0 0 -105z"/>
<path d="M2710 1295 c0 -106 0 -107 23 -101 12 3 32 6 45 6 40 0 62 34 62 94
0 69 -19 93 -82 102 l-48 6 0 -107z m88 63 c7 -7 12 -36 12 -65 0 -45 -3 -55
-26 -69 -16 -11 -28 -14 -35 -7 -14 14 -22 77 -15 117 6 29 12 36 29 36 13 0
28 -5 35 -12z"/>
<path d="M2896 1357 c-19 -127 51 -210 119 -142 22 21 25 33 25 94 0 38 -4 72
-9 75 -10 7 -21 -41 -21 -91 0 -44 -16 -73 -39 -73 -29 0 -39 20 -47 90 -9 87
-20 104 -28 47z"/>
<path d="M3123 1385 c-15 -10 -23 -26 -23 -45 0 -23 8 -33 43 -52 61 -34 58
-61 -8 -68 -46 -5 -48 -6 -28 -17 28 -17 74 -17 96 0 10 6 19 25 20 41 2 26
-5 33 -50 60 -29 16 -53 35 -53 42 0 7 24 15 56 19 60 7 61 19 4 30 -24 4 -42
1 -57 -10z"/>
<path d="M3265 1390 c-3 -6 5 -14 18 -19 22 -9 25 -18 32 -88 9 -82 10 -82 20
10 6 51 10 61 36 76 24 15 27 20 14 25 -26 10 -113 7 -120 -4z"/>
<path d="M3430 1306 c0 -53 4 -98 10 -101 6 -3 10 4 10 17 0 14 7 33 15 44 15
19 15 18 37 -8 13 -15 30 -37 39 -50 25 -35 35 -14 14 32 -17 37 -17 41 -2 58
24 26 21 49 -8 77 -18 19 -35 25 -70 25 l-45 0 0 -94z m104 41 c13 -22 -5 -37
-46 -37 -32 0 -42 12 -33 41 5 15 14 19 37 17 17 -2 36 -11 42 -21z"/>
<path d="M2496 1349 c-8 -50 3 -161 15 -153 5 3 9 20 9 38 0 19 3 48 6 65 l7
32 38 -63 c22 -35 45 -63 51 -63 16 0 24 163 9 178 -9 9 -14 -13 -23 -102 -3
-21 -9 -15 -46 42 -24 37 -47 67 -51 67 -5 0 -11 -19 -15 -41z"/>
<path d="M3630 1295 c0 -57 4 -95 10 -95 6 0 10 38 10 95 0 57 -4 95 -10 95
-6 0 -10 -38 -10 -95z"/>
<path d="M2154 895 c0 -110 2 -156 3 -103 2 53 2 143 0 200 -1 57 -3 13 -3
-97z"/>
<path d="M4100 1074 c15 -18 61 -15 68 4 3 11 1 11 -17 1 -16 -11 -23 -11 -33
-1 -18 18 -33 15 -18 -4z"/>
<path d="M2575 1071 c-6 -11 9 -23 19 -14 9 9 7 23 -3 23 -6 0 -12 -4 -16 -9z"/>
<path d="M2630 1070 c0 -5 5 -10 10 -10 6 0 10 5 10 10 0 6 -4 10 -10 10 -5 0
-10 -4 -10 -10z"/>
<path d="M3535 1071 c-6 -11 9 -23 19 -14 9 9 7 23 -3 23 -6 0 -12 -4 -16 -9z"/>
<path d="M3975 1071 c-6 -11 9 -23 19 -14 9 9 7 23 -3 23 -6 0 -12 -4 -16 -9z"/>
<path d="M4255 1071 c-6 -11 9 -23 19 -14 9 9 7 23 -3 23 -6 0 -12 -4 -16 -9z"/>
<path d="M2321 944 l1 -99 12 59 11 59 22 -47 c13 -25 27 -46 33 -46 6 0 20
21 33 46 l22 46 11 -63 12 -64 1 98 c0 56 -3 97 -9 97 -5 0 -21 -27 -37 -60
-15 -33 -30 -60 -34 -60 -4 0 -17 25 -29 55 -39 96 -50 92 -49 -21z"/>
<path d="M2950 935 l0 -105 60 0 c33 0 60 4 60 10 0 6 -15 10 -33 10 -45 0
-71 20 -63 48 6 17 15 22 41 22 19 0 37 4 40 10 5 9 -11 15 -60 22 -32 5 -27
52 5 56 86 9 89 32 4 32 l-54 0 0 -105z"/>
<path d="M3350 1030 c-11 -7 -16 -34 -18 -105 l-4 -95 49 0 c60 0 92 28 100
87 7 54 -10 91 -52 108 -40 17 -54 18 -75 5z m90 -39 c11 -22 13 -80 4 -106
-9 -23 -53 -38 -70 -24 -14 12 -20 129 -7 142 14 15 63 7 73 -12z"/>
<path d="M3537 989 c-8 -66 2 -173 14 -144 10 26 10 154 0 180 -6 14 -9 5 -14
-36z"/>
<path d="M3638 1010 c-28 -28 -29 -32 -15 -53 8 -12 32 -28 53 -35 50 -17 60
-27 44 -47 -8 -9 -29 -15 -56 -15 -51 0 -59 -16 -11 -25 58 -11 115 25 102 64
-3 12 -29 31 -62 46 -56 25 -56 25 -37 46 13 15 28 20 51 17 39 -5 43 9 7 22
-37 14 -43 13 -76 -20z"/>
<path d="M4091 1014 c-26 -33 -29 -128 -5 -162 33 -47 119 -12 112 46 -2 20
-9 28 -28 30 -20 3 -23 1 -12 -9 20 -22 14 -48 -14 -55 -37 -9 -45 5 -42 77 3
56 6 64 24 67 11 2 27 -4 34 -13 7 -8 19 -15 26 -15 21 0 -4 36 -33 49 -34 15
-39 14 -62 -15z"/>
<path d="M4274 935 c0 -60 1 -84 3 -52 2 32 2 81 0 110 -2 29 -3 3 -3 -58z"/>
<path d="M2550 958 c0 -91 14 -122 57 -126 54 -5 73 24 73 112 0 90 -16 109
-25 29 -12 -109 -14 -114 -43 -111 -26 3 -27 6 -36 86 -5 45 -13 82 -18 82 -4
0 -8 -33 -8 -72z"/>
<path d="M2758 1024 c-12 -11 -10 -182 2 -189 6 -4 10 6 10 24 0 44 10 61 34
61 25 0 49 -16 64 -45 9 -16 11 -9 12 40 0 46 -3 56 -12 47 -7 -7 -29 -12 -50
-12 -39 0 -40 2 -50 63 -2 11 -6 15 -10 11z"/>
<path d="M3134 995 c-3 -20 -2 -51 4 -68 l10 -32 1 44 1 44 41 -59 c60 -86 71
-97 81 -82 10 17 10 159 -1 176 -11 19 -21 -18 -21 -83 l0 -50 -45 67 c-24 36
-49 69 -54 72 -6 4 -13 -10 -17 -29z"/>
<path d="M3975 999 c-9 -40 4 -161 16 -154 12 8 12 185 0 185 -5 0 -12 -14
-16 -31z"/>
<path d="M1795 966 c-18 -13 -17 -17 41 -87 33 -41 72 -91 87 -111 l27 -37
-55 -36 c-74 -47 -96 -105 -39 -105 21 0 24 5 24 34 0 28 6 38 35 55 60 35 59
68 -4 144 -22 26 -51 72 -65 102 -14 30 -27 55 -29 55 -2 0 -12 -6 -22 -14z"/>
<path d="M3818 954 c-5 -4 -8 -34 -8 -66 l0 -58 60 0 c73 0 79 17 10 26 l-49
6 -3 50 c-2 27 -6 46 -10 42z"/>
<path d="M1105 720 c-4 -6 5 -10 19 -10 31 0 32 -4 6 -37 -24 -31 -26 -53 -4
-53 8 0 12 4 9 10 -3 5 1 23 10 41 9 17 14 37 11 45 -6 16 -42 19 -51 4z"/>
<path d="M1196 714 c-16 -42 -3 -94 24 -94 22 0 30 19 30 71 0 34 -3 39 -24
39 -13 0 -27 -7 -30 -16z m44 -39 c0 -42 -16 -54 -31 -22 -8 18 -8 30 0 46 16
29 31 17 31 -24z"/>
<path d="M1295 710 c-11 -34 5 -90 26 -90 33 0 53 72 27 98 -18 18 -46 14 -53
-8z m40 -11 c8 -25 -2 -69 -15 -69 -6 0 -10 20 -10 45 0 47 14 60 25 24z"/>
<path d="M1394 715 c-4 -8 0 -25 9 -38 10 -15 12 -29 5 -46 -7 -21 -6 -22 7
-11 18 15 33 68 27 93 -5 21 -40 23 -48 2z m31 -13 c0 -18 -20 -15 -23 4 -3
10 1 15 10 12 7 -3 13 -10 13 -16z"/>
<path d="M2535 711 c-6 -11 9 -23 19 -14 9 9 7 23 -3 23 -6 0 -12 -4 -16 -9z"/>
<path d="M2590 710 c0 -5 5 -10 10 -10 6 0 10 5 10 10 0 6 -4 10 -10 10 -5 0
-10 -4 -10 -10z"/>
<path d="M2910 710 c0 -5 5 -10 10 -10 6 0 10 5 10 10 0 6 -4 10 -10 10 -5 0
-10 -4 -10 -10z"/>
<path d="M2962 711 c4 -13 18 -16 19 -4 0 4 -5 9 -11 12 -7 2 -11 -2 -8 -8z"/>
<path d="M3335 711 c-6 -11 9 -23 19 -14 9 9 7 23 -3 23 -6 0 -12 -4 -16 -9z"/>
<path d="M3390 710 c0 -5 5 -10 10 -10 6 0 10 5 10 10 0 6 -4 10 -10 10 -5 0
-10 -4 -10 -10z"/>
<path d="M2536 655 c-22 -21 -26 -32 -26 -82 0 -71 19 -103 61 -103 44 0 69
31 69 88 0 67 -8 86 -40 105 -35 21 -32 22 -64 -8z m62 -17 c14 -14 16 -106 3
-126 -4 -8 -19 -12 -32 -10 -22 3 -24 8 -27 61 -4 75 22 109 56 75z"/>
<path d="M2320 570 l0 -100 40 0 c75 0 114 36 84 79 -11 15 -12 26 -4 47 20
53 -3 74 -82 74 l-38 0 0 -100z m91 70 c31 -17 7 -50 -36 -50 -40 0 -50 12
-35 40 12 22 40 26 71 10z m-1 -95 c20 -24 4 -45 -34 -45 -39 0 -50 11 -41 40
8 24 56 28 75 5z"/>
<path d="M3077 663 c-11 -10 -8 -183 3 -183 5 0 10 28 12 63 l3 62 31 -60 31
-59 26 49 26 50 2 -35 c0 -19 4 -46 9 -60 l7 -25 7 25 c10 36 3 165 -9 164 -5
0 -23 -26 -40 -56 l-30 -56 -24 54 c-24 55 -43 79 -54 67z"/>
<path d="M2718 654 c-5 -4 -8 -47 -8 -96 l0 -88 55 0 c30 0 55 5 55 10 0 6
-20 10 -45 10 l-44 0 -3 86 c-2 47 -6 82 -10 78z"/>
<path d="M2870 605 c0 -100 38 -150 100 -130 29 9 40 44 40 121 0 86 -15 74
-23 -17 -7 -88 -27 -109 -66 -70 -13 13 -22 41 -26 85 -9 80 -25 87 -25 11z"/>
<path d="M3310 581 c0 -71 2 -82 22 -95 28 -20 58 -20 86 0 19 13 22 24 22 82
0 73 -13 111 -23 70 -4 -12 -7 -44 -7 -69 0 -50 -16 -73 -47 -67 -14 2 -20 18
-27 81 -5 42 -13 77 -18 77 -4 0 -8 -36 -8 -79z"/>
<path d="M1816 508 c-3 -13 -6 -59 -6 -103 0 -44 -3 -90 -6 -101 -6 -24 -35
-34 -174 -59 -135 -24 -190 -48 -190 -80 0 -26 34 -27 53 -1 22 30 51 40 191
65 144 26 152 34 149 142 -2 68 1 85 19 109 11 15 17 33 14 39 -12 19 -43 12
-50 -11z"/>
</g>
</svg>
