<?xml version="1.0" standalone="no"?>
<!DOCTYPE svg PUBLIC "-//W3C//DTD SVG 20010904//EN"
 "http://www.w3.org/TR/2001/REC-SVG-20010904/DTD/svg10.dtd">
<svg version="1.0" xmlns="http://www.w3.org/2000/svg"
 width="336.000000pt" height="150.000000pt" viewBox="0 0 336.000000 150.000000"
 preserveAspectRatio="xMidYMid meet">

<g transform="translate(0.000000,150.000000) scale(0.100000,-0.100000)"
fill="#000000" stroke="none">
<path d="M857 1403 c-4 -3 -7 -12 -7 -19 0 -7 -5 -25 -11 -41 l-10 -27 -22 39
c-22 40 -66 61 -68 33 -3 -46 -8 -81 -13 -86 -3 -3 -21 11 -38 31 -28 32 -35
35 -50 24 -13 -10 -15 -21 -8 -55 4 -23 4 -44 0 -47 -3 -2 -23 9 -42 25 -34
28 -36 29 -52 11 -16 -17 -16 -22 -1 -56 8 -21 13 -40 10 -43 -3 -3 -23 3 -45
13 -37 17 -42 17 -57 3 -14 -15 -14 -19 4 -45 39 -56 39 -57 2 -50 -19 3 -41
8 -50 12 -10 4 -19 -2 -26 -18 -10 -22 -8 -28 18 -53 16 -15 29 -31 29 -36 0
-4 -20 -8 -44 -8 -31 0 -46 -5 -50 -16 -10 -25 -8 -28 29 -48 19 -11 35 -23
35 -27 0 -4 -19 -12 -42 -16 -33 -7 -44 -13 -46 -31 -3 -17 5 -25 37 -38 23
-9 41 -20 41 -24 0 -4 -18 -15 -41 -24 -32 -13 -40 -21 -37 -38 2 -18 12 -24
47 -30 24 -4 46 -9 48 -12 3 -2 -13 -16 -35 -31 -29 -19 -38 -31 -35 -46 4
-15 14 -19 54 -19 27 0 49 -4 49 -8 0 -5 -13 -21 -29 -36 -25 -24 -28 -32 -19
-51 10 -21 12 -22 53 -9 24 7 46 10 49 7 2 -3 -6 -22 -19 -43 -23 -36 -23 -39
-6 -54 16 -14 20 -14 56 4 21 11 40 18 42 16 2 -1 -4 -22 -12 -46 -14 -39 -14
-44 2 -56 24 -18 27 -17 49 7 10 11 27 25 37 31 16 8 17 5 11 -40 -6 -46 -4
-50 17 -57 18 -6 28 -1 48 24 14 17 29 31 34 31 4 0 7 -20 7 -44 0 -39 3 -44
25 -48 16 -4 29 1 37 14 13 18 15 17 73 -7 51 -21 75 -25 158 -24 94 1 121 9
99 31 -7 7 -18 5 -33 -6 -44 -31 -207 -14 -264 28 -17 12 -18 18 -7 52 6 21
10 39 8 41 -2 2 -29 10 -60 18 -235 61 -384 277 -349 505 50 320 396 491 678
334 136 -77 216 -214 219 -376 1 -59 3 -68 20 -68 14 0 17 5 12 23 -4 12 -12
53 -17 91 -12 82 -33 148 -61 194 -18 30 -18 32 -2 39 11 4 22 0 30 -12 24
-33 56 -128 60 -179 4 -55 7 -61 29 -52 15 5 15 9 2 33 -8 16 -20 48 -27 73
-6 25 -23 71 -38 104 -24 55 -25 60 -10 86 14 25 14 29 1 43 -14 14 -20 13
-59 -6 -24 -11 -46 -18 -50 -14 -4 3 1 25 11 49 16 40 16 43 -1 55 -24 17 -27
17 -54 -12 -36 -38 -48 -32 -47 22 2 60 -21 69 -59 24 -14 -17 -30 -31 -35
-31 -5 0 -9 20 -9 45 0 25 -4 45 -9 45 -5 0 -16 2 -23 5 -10 4 -21 -8 -33 -35
-22 -48 -37 -47 -49 3 -7 28 -15 37 -31 37 -12 0 -25 -3 -28 -7z"/>
<path d="M1615 670 c0 -305 1 -430 2 -277 2 152 2 402 0 555 -1 152 -2 27 -2
-278z"/>
<path d="M680 1145 c10 -12 9 -16 -4 -21 -13 -5 -10 -12 20 -40 19 -19 42 -34
49 -34 18 0 4 -53 -20 -77 -16 -15 -19 -15 -51 2 -39 21 -53 14 -78 -39 -23
-48 -21 -70 3 -56 11 6 17 17 15 27 -3 10 2 27 10 38 14 19 15 19 35 1 13 -12
19 -26 15 -38 -6 -19 20 -27 30 -9 6 8 85 3 96 -6 2 -2 5 -20 5 -38 1 -31 -1
-35 -24 -35 -35 0 -12 -22 28 -26 25 -3 32 0 37 20 l6 24 33 -22 c30 -19 34
-26 35 -66 0 -25 3 -55 6 -67 9 -33 -27 -46 -136 -47 -82 -1 -95 -3 -98 -18
-3 -17 14 -18 253 -18 168 0 254 3 250 10 -3 6 -14 10 -25 10 -16 0 -17 7 -13
79 4 72 2 82 -17 99 -33 30 -37 34 -68 72 -53 64 -84 120 -67 120 11 0 15 11
15 39 0 34 -4 40 -30 50 -26 9 -30 14 -28 43 3 29 0 33 -23 36 -34 4 -45 -22
-23 -56 l16 -25 -35 7 c-44 8 -57 -8 -28 -35 21 -20 28 -39 14 -39 -5 1 -28
25 -52 55 -32 42 -53 58 -85 67 -22 6 -45 15 -50 20 -17 14 -29 9 -16 -7z
m336 -222 c-7 -7 -26 7 -26 19 0 6 6 6 15 -2 9 -7 13 -15 11 -17z m97 -190 c5
-26 4 -26 -9 -8 -16 22 -18 35 -5 35 5 0 11 -12 14 -27z m-23 -58 c0 -21 -64
-48 -98 -40 -24 5 -28 10 -27 35 2 36 1 34 45 53 34 14 36 14 58 -10 12 -13
22 -30 22 -38z m26 -42 c-11 -11 -19 6 -11 24 8 17 8 17 12 0 3 -10 2 -21 -1
-24z"/>
<path d="M2195 1070 c-3 -5 -1 -10 4 -10 6 0 11 5 11 10 0 6 -2 10 -4 10 -3 0
-8 -4 -11 -10z"/>
<path d="M2240 1070 c0 -5 5 -10 10 -10 6 0 10 5 10 10 0 6 -4 10 -10 10 -5 0
-10 -4 -10 -10z"/>
<path d="M2720 1070 c0 -5 5 -10 10 -10 6 0 10 5 10 10 0 6 -4 10 -10 10 -5 0
-10 -4 -10 -10z"/>
<path d="M1740 973 l0 -78 45 0 c54 0 60 13 8 17 -31 2 -39 7 -41 26 -3 19 1
22 32 22 20 0 36 5 36 10 0 6 -16 10 -36 10 -31 0 -35 3 -32 23 2 18 10 23 41
25 52 4 46 22 -8 22 l-45 0 0 -77z"/>
<path d="M1870 971 c0 -92 17 -111 22 -23 l3 57 28 -47 c50 -83 57 -82 57 11
0 47 -4 81 -10 81 -5 0 -10 -26 -10 -57 l-1 -58 -35 55 c-19 30 -39 57 -44 58
-6 2 -10 -29 -10 -77z"/>
<path d="M2030 973 l0 -79 38 4 c52 6 62 18 62 71 0 60 -9 71 -59 78 l-41 6 0
-80z m64 51 c23 -9 23 -99 0 -108 -38 -15 -44 -8 -44 54 0 62 6 69 44 54z"/>
<path d="M2170 990 c0 -47 4 -64 20 -80 24 -24 38 -25 68 -4 19 13 22 24 22
80 0 36 -4 64 -10 64 -6 0 -10 -26 -10 -59 0 -66 -18 -93 -48 -74 -12 7 -18
27 -20 72 -4 79 -22 80 -22 1z"/>
<path d="M2335 1034 c-26 -26 -15 -57 25 -70 23 -8 35 -18 35 -30 0 -16 -7
-19 -37 -17 -45 3 -51 -13 -9 -22 40 -9 71 9 71 41 0 21 -8 29 -40 41 -53 21
-51 49 3 47 41 -1 50 10 15 20 -35 9 -45 7 -63 -10z"/>
<path d="M2440 1041 c0 -5 10 -11 23 -13 20 -3 22 -9 24 -63 2 -87 6 -89 12
-10 5 63 8 70 29 73 44 7 21 22 -33 22 -30 0 -55 -4 -55 -9z"/>
<path d="M2570 976 c0 -41 5 -78 10 -81 6 -4 10 8 10 29 0 49 30 49 53 1 9
-19 21 -35 27 -35 13 0 13 6 -5 41 -14 27 -14 31 0 45 19 19 19 24 -1 52 -11
16 -25 22 -55 22 l-39 0 0 -74z m77 43 c18 -18 3 -39 -28 -39 -24 0 -29 4 -29
25 0 19 5 25 23 25 13 0 28 -5 34 -11z"/>
<path d="M2720 970 c0 -47 4 -80 10 -80 6 0 10 33 10 80 0 47 -4 80 -10 80 -6
0 -10 -33 -10 -80z"/>
<path d="M3072 810 c2 -8 15 -15 28 -15 13 0 26 7 28 15 5 13 3 13 -11 1 -14
-11 -20 -11 -34 0 -14 12 -16 12 -11 -1z"/>
<path d="M1930 800 c0 -5 5 -10 10 -10 6 0 10 5 10 10 0 6 -4 10 -10 10 -5 0
-10 -4 -10 -10z"/>
<path d="M1970 800 c0 -5 5 -10 10 -10 6 0 10 5 10 10 0 6 -4 10 -10 10 -5 0
-10 -4 -10 -10z"/>
<path d="M2650 800 c0 -5 5 -10 10 -10 6 0 10 5 10 10 0 6 -4 10 -10 10 -5 0
-10 -4 -10 -10z"/>
<path d="M2980 800 c0 -5 5 -10 10 -10 6 0 10 5 10 10 0 6 -4 10 -10 10 -5 0
-10 -4 -10 -10z"/>
<path d="M3190 800 c0 -5 5 -10 10 -10 6 0 10 5 10 10 0 6 -4 10 -10 10 -5 0
-10 -4 -10 -10z"/>
<path d="M1738 750 c-2 -19 -1 -57 2 -85 l4 -50 6 55 6 55 17 -37 c10 -21 22
-38 27 -38 5 0 16 16 24 35 8 19 17 35 19 35 3 0 5 -21 5 -46 1 -26 4 -49 7
-52 3 -3 5 33 5 79 -1 76 -2 82 -15 64 -9 -10 -21 -34 -27 -52 -7 -18 -15 -33
-18 -33 -3 0 -11 15 -18 33 -6 18 -18 42 -26 52 -14 19 -15 18 -18 -15z"/>
<path d="M1910 718 c0 -88 27 -117 81 -88 16 9 19 22 19 82 0 87 -17 81 -22
-7 -3 -57 -4 -60 -28 -60 -24 0 -25 3 -28 60 -4 85 -22 95 -22 13z"/>
<path d="M2060 701 c0 -47 4 -81 10 -81 6 0 10 16 10 36 0 34 1 35 33 32 28
-3 33 -7 38 -38 4 -21 6 -2 6 50 0 47 -2 68 -4 48 -4 -36 -6 -38 -39 -38 -31
0 -34 3 -34 29 0 17 -4 33 -10 36 -6 4 -10 -23 -10 -74z"/>
<path d="M2210 700 l0 -80 50 0 c28 0 50 5 50 10 0 6 -18 10 -40 10 -36 0 -40
3 -40 25 0 22 4 25 35 25 19 0 35 5 35 10 0 6 -16 10 -35 10 -31 0 -35 3 -35
25 0 23 4 25 41 25 24 0 38 4 34 10 -3 6 -26 10 -51 10 l-44 0 0 -80z"/>
<path d="M2352 698 c1 -82 1 -82 7 -23 l6 60 38 -57 c21 -32 42 -58 47 -58 13
0 13 147 1 155 -6 3 -11 -19 -13 -52 l-3 -58 -37 58 c-21 31 -40 57 -43 57 -3
0 -4 -37 -3 -82z"/>
<path d="M2508 774 c-5 -4 -8 -40 -8 -81 l0 -73 35 0 c47 0 75 29 75 78 0 21
-6 46 -13 55 -13 19 -77 34 -89 21z m70 -26 c16 -16 16 -80 0 -96 -7 -7 -22
-12 -35 -12 -21 0 -23 4 -23 60 0 56 2 60 23 60 13 0 28 -5 35 -12z"/>
<path d="M2650 700 c0 -47 4 -80 10 -80 6 0 10 33 10 80 0 47 -4 80 -10 80 -6
0 -10 -33 -10 -80z"/>
<path d="M2730 760 c-11 -11 -20 -24 -20 -29 0 -15 30 -41 48 -41 9 0 23 -4
31 -9 13 -8 13 -12 1 -26 -10 -12 -23 -15 -47 -10 -42 8 -44 -11 -3 -20 21 -5
39 -2 55 9 42 27 31 56 -27 75 -21 7 -38 16 -38 21 0 17 31 32 55 26 14 -4 25
-2 25 3 0 8 -32 20 -52 21 -5 0 -17 -9 -28 -20z"/>
<path d="M2862 703 l-2 -83 45 0 c54 0 60 18 8 22 l-38 3 -6 70 -5 70 -2 -82z"/>
<path d="M2987 773 c-11 -10 -8 -141 3 -148 6 -4 10 23 10 74 0 81 -1 87 -13
74z"/>
<path d="M3066 764 c-25 -24 -22 -120 3 -134 41 -22 81 1 81 46 0 20 -5 24
-27 23 -18 -1 -22 -3 -10 -6 29 -8 18 -48 -13 -48 -23 0 -25 4 -28 51 -3 59
16 78 50 48 10 -10 21 -14 26 -10 8 9 -34 46 -53 46 -8 0 -21 -7 -29 -16z"/>
<path d="M3200 700 c0 -46 3 -80 6 -77 8 8 8 147 0 155 -3 3 -6 -32 -6 -78z"/>
<path d="M1347 726 c-16 -12 -16 -15 -3 -29 29 -29 116 -140 116 -148 0 -5
-17 -17 -39 -28 -53 -27 -73 -81 -30 -81 18 0 20 5 16 26 -4 21 1 28 29 42 46
21 46 58 1 105 -31 33 -43 54 -63 104 -8 19 -11 20 -27 9z"/>
<path d="M824 539 c-4 -8 0 -9 15 -4 25 8 29 -16 6 -35 -22 -19 -18 -40 8 -39
19 0 19 1 4 7 -16 7 -16 9 -3 27 22 28 20 55 -3 55 -11 0 -23 -5 -27 -11z"/>
<path d="M894 526 c-8 -35 4 -68 24 -64 12 2 18 16 20 46 3 37 1 42 -17 42
-13 0 -23 -9 -27 -24z m36 -22 c0 -24 -4 -34 -12 -32 -24 8 -22 68 2 68 5 0
10 -16 10 -36z"/>
<path d="M970 510 c0 -28 5 -43 16 -47 21 -8 35 15 32 52 -2 23 -9 31 -25 33
-21 3 -23 -1 -23 -38z m35 -5 c0 -16 -6 -30 -12 -32 -9 -3 -13 7 -13 32 0 25
4 35 13 33 6 -3 12 -17 12 -33z"/>
<path d="M1043 534 c-4 -10 0 -22 9 -28 12 -9 13 -17 7 -29 -6 -9 -8 -17 -5
-17 12 0 35 60 30 74 -8 21 -33 20 -41 0z m29 -9 c0 -5 -5 -11 -11 -13 -6 -2
-11 4 -11 13 0 9 5 15 11 13 6 -2 11 -8 11 -13z"/>
<path d="M1900 530 c0 -5 5 -10 10 -10 6 0 10 5 10 10 0 6 -4 10 -10 10 -5 0
-10 -4 -10 -10z"/>
<path d="M1940 530 c0 -5 5 -10 10 -10 6 0 10 5 10 10 0 6 -4 10 -10 10 -5 0
-10 -4 -10 -10z"/>
<path d="M2180 530 c0 -5 5 -10 10 -10 6 0 10 5 10 10 0 6 -4 10 -10 10 -5 0
-10 -4 -10 -10z"/>
<path d="M2220 530 c0 -5 5 -10 10 -10 6 0 10 5 10 10 0 6 -4 10 -10 10 -5 0
-10 -4 -10 -10z"/>
<path d="M2500 530 c0 -5 5 -10 10 -10 6 0 10 5 10 10 0 6 -4 10 -10 10 -5 0
-10 -4 -10 -10z"/>
<path d="M2540 530 c0 -5 5 -10 10 -10 6 0 10 5 10 10 0 6 -4 10 -10 10 -5 0
-10 -4 -10 -10z"/>
<path d="M1902 494 c-18 -12 -22 -25 -22 -64 0 -69 31 -96 81 -70 30 16 27
113 -3 134 -12 9 -25 16 -28 16 -3 0 -16 -7 -28 -16z m46 -13 c9 -5 12 -25 10
-57 -3 -45 -5 -49 -28 -49 -22 0 -25 5 -28 43 -2 24 2 50 9 58 13 16 19 17 37
5z"/>
<path d="M1740 425 l0 -75 31 0 c58 0 89 36 57 68 -8 8 -8 15 1 26 7 8 10 24
6 36 -5 16 -15 20 -51 20 l-44 0 0 -75z m69 56 c23 -15 5 -41 -29 -41 -22 0
-30 5 -30 18 0 32 28 42 59 23z m6 -86 c0 -15 -8 -21 -32 -23 -30 -3 -33 -1
-33 23 0 24 3 26 33 23 24 -2 32 -8 32 -23z"/>
<path d="M2030 425 l0 -75 45 0 c25 0 45 5 45 10 0 6 -16 10 -35 10 l-35 0 0
65 c0 37 -4 65 -10 65 -6 0 -10 -32 -10 -75z"/>
<path d="M2150 453 c0 -62 18 -97 51 -101 42 -5 59 21 59 89 0 33 -4 59 -10
59 -6 0 -10 -27 -10 -60 0 -47 -4 -62 -16 -67 -32 -12 -49 11 -52 71 -4 68
-22 75 -22 9z"/>
<path d="M2300 425 c0 -43 4 -75 10 -75 6 0 10 24 10 53 l1 52 23 -45 23 -44
21 39 21 40 1 -47 c0 -27 5 -48 10 -48 6 0 10 32 10 75 0 41 -4 75 -8 75 -4 0
-19 -21 -32 -47 l-23 -48 -20 48 c-31 71 -47 62 -47 -28z"/>
<path d="M2480 435 c0 -60 2 -66 25 -77 19 -8 31 -8 50 0 23 11 25 17 25 77 0
83 -18 85 -22 3 -3 -60 -4 -63 -28 -63 -24 0 -25 3 -28 63 -4 82 -22 80 -22
-3z"/>
<path d="M1363 388 c-4 -7 -7 -47 -6 -90 2 -53 -2 -79 -11 -87 -7 -6 -48 -15
-92 -21 -131 -17 -210 -55 -165 -79 16 -9 21 -8 26 7 8 28 48 42 144 53 111
12 126 27 117 114 -5 54 -4 63 15 79 18 15 19 20 8 27 -19 12 -26 11 -36 -3z"/>
</g>
</svg>
